<svg width="512" height="512" viewBox="0 0 512 512" fill="none" xmlns="http://www.w3.org/2000/svg">
  <rect width="512" height="512" rx="128" fill="#3B82F6"/>
  <g transform="translate(128, 128)">
    <!-- 게임패드 아이콘 -->
    <path d="M64 128C64 92.65 92.65 64 128 64H192C227.35 64 256 92.65 256 128V192C256 227.35 227.35 256 192 256H128C92.65 256 64 227.35 64 192V128Z" fill="white" fill-opacity="0.9"/>
    
    <!-- D-패드 -->
    <rect x="88" y="120" width="24" height="64" rx="4" fill="#3B82F6"/>
    <rect x="72" y="136" width="64" height="24" rx="4" fill="#3B82F6"/>
    
    <!-- 버튼들 -->
    <circle cx="184" cy="120" r="12" fill="#EF4444"/>
    <circle cx="208" cy="144" r="12" fill="#10B981"/>
    <circle cx="184" cy="168" r="12" fill="#F59E0B"/>
    <circle cx="160" cy="144" r="12" fill="#3B82F6"/>
    
    <!-- 음표 -->
    <path d="M128 32L128 0L160 8L160 40C160 48.8366 152.837 56 144 56C135.163 56 128 48.8366 128 40V32Z" fill="white"/>
    <circle cx="128" cy="48" r="8" fill="white"/>
    <path d="M160 16L192 24L192 56C192 64.8366 184.837 72 176 72C167.163 72 160 64.8366 160 56V16Z" fill="white"/>
    <circle cx="160" cy="64" r="8" fill="white"/>
  </g>
</svg>